<svg xmlns="http://www.w3.org/2000/svg" shape-rendering="crispEdges" xmlns:xlink="http://www.w3.org/1999/xlink" width="2.8455in" height="3.1605in" viewBox="0 0 271 301"><g transform="translate(-160,-330)" xmlns="http://www.w3.org/2000/svg"> <rect xmlns="http://www.w3.org/2000/svg" x="160" y="330" width="283.605" height="315.105" stroke-width="0" fill="#FFFFFF"/>  <g xmlns="http://www.w3.org/2000/svg">           <text x="312.5" y="430" font-family="Arial" font-size="7pt" fill="#000080" text-anchor="start">LED </text>           <text x="313.5" y="421" font-family="Arial" font-size="7pt" fill="#000080" text-anchor="start">L1 </text>      <path d="M 335 437 L 331 439 L 333 441 Z" stroke="#880000" stroke-width="1" fill="#880000"/>      <path d="M 331 433 L 327 435 L 329 437 Z" stroke="#880000" stroke-width="1" fill="#880000"/>    <g c_partid="part_pin" c_etype="pinpart" c_show="show" c_elec="0" c_spicepin="2" c_origin="340 ,450" id="0" c_rotation="0">    <path d="M 340 450 h -15" fill="none" stroke="#800" stroke-width="1"/><circle cx="328" cy="450" r="3" fill="none" stroke="#800" stroke-width="1" display="none"/><path d="M 325 447 L 322 450 L 325 453" fill="none" stroke="#800" stroke-width="1" display="none"/></g>      <polyline points="328 444 335 437" stroke="#880000" stroke-width="1" fill="none" stroke-linecap="round"/>      <polyline points="324 440 331 433" stroke="#880000" stroke-width="1" fill="none" stroke-linecap="round"/>    <g c_partid="part_pin" c_etype="pinpart" c_show="show" c_elec="0" c_spicepin="1" c_origin="300 ,450" id="0" c_rotation="180">    <path d="M 300 450 h 15" fill="none" stroke="#800" stroke-width="1"/><circle cx="312" cy="450" r="3" fill="none" stroke="#800" stroke-width="1" display="none"/><path d="M 315 453 L 318 450 L 315 447" fill="none" stroke="#800" stroke-width="1" display="none"/></g>      <polyline points="325 442 325 458" stroke="#880000" stroke-width="1" fill="none" stroke-linecap="round"/>      <path d="M 315 456 L 325 450 L 315 443 Z" stroke="#880000" stroke-width="1" fill="#880000"/></g>  <g xmlns="http://www.w3.org/2000/svg">           <text x="242.5" y="442" font-family="Arial" font-size="7pt" fill="#000080" text-anchor="start">470 </text>           <text x="243.5" y="433" font-family="Arial" font-size="7pt" fill="#000080" text-anchor="start">R3 </text>      <polyline points="265 450 262 455" stroke="#A00000" stroke-width="1" fill="none" stroke-linecap="round"/>      <polyline points="257 445 252 455" stroke="#A00000" stroke-width="1" fill="none" stroke-linecap="round"/>      <polyline points="262 455 257 445" stroke="#A00000" stroke-width="1" fill="none" stroke-linecap="round"/>    <g c_partid="part_pin" c_etype="pinpart" c_show="show" c_elec="0" c_spicepin="2" c_origin="270 ,450" id="0" c_rotation="0">    <path d="M 270 450 h -5" fill="none" stroke="#800" stroke-width="1"/><circle cx="268" cy="450" r="3" fill="none" stroke="#800" stroke-width="1" display="none"/><path d="M 265 447 L 262 450 L 265 453" fill="none" stroke="#800" stroke-width="1" display="none"/></g>      <polyline points="243 455 238 445" stroke="#A00000" stroke-width="1" fill="none" stroke-linecap="round"/>      <polyline points="252 455 248 445" stroke="#A00000" stroke-width="1" fill="none" stroke-linecap="round"/>      <polyline points="248 445 243 455" stroke="#A00000" stroke-width="1" fill="none" stroke-linecap="round"/>      <polyline points="238 445 235 450" stroke="#A00000" stroke-width="1" fill="none" stroke-linecap="round"/>    <g c_partid="part_pin" c_etype="pinpart" c_show="show" c_elec="0" c_spicepin="1" c_origin="230 ,450" id="0" c_rotation="180">    <path d="M 230 450 h 5" fill="none" stroke="#800" stroke-width="1"/><circle cx="232" cy="450" r="3" fill="none" stroke="#800" stroke-width="1" display="none"/><path d="M 235 453 L 238 450 L 235 447" fill="none" stroke="#800" stroke-width="1" display="none"/></g></g>  <g xmlns="http://www.w3.org/2000/svg">           <text x="242.5" y="392" font-family="Arial" font-size="7pt" fill="#000080" text-anchor="start">1k </text>           <text x="243.5" y="383" font-family="Arial" font-size="7pt" fill="#000080" text-anchor="start">R1 </text>      <polyline points="265 400 262 405" stroke="#A00000" stroke-width="1" fill="none" stroke-linecap="round"/>      <polyline points="257 395 252 405" stroke="#A00000" stroke-width="1" fill="none" stroke-linecap="round"/>      <polyline points="262 405 257 395" stroke="#A00000" stroke-width="1" fill="none" stroke-linecap="round"/>    <g c_partid="part_pin" c_etype="pinpart" c_show="show" c_elec="0" c_spicepin="2" c_origin="270 ,400" id="0" c_rotation="0">    <path d="M 270 400 h -5" fill="none" stroke="#800" stroke-width="1"/><circle cx="268" cy="400" r="3" fill="none" stroke="#800" stroke-width="1" display="none"/><path d="M 265 397 L 262 400 L 265 403" fill="none" stroke="#800" stroke-width="1" display="none"/></g>      <polyline points="243 405 238 395" stroke="#A00000" stroke-width="1" fill="none" stroke-linecap="round"/>      <polyline points="252 405 248 395" stroke="#A00000" stroke-width="1" fill="none" stroke-linecap="round"/>      <polyline points="248 395 243 405" stroke="#A00000" stroke-width="1" fill="none" stroke-linecap="round"/>      <polyline points="238 395 235 400" stroke="#A00000" stroke-width="1" fill="none" stroke-linecap="round"/>    <g c_partid="part_pin" c_etype="pinpart" c_show="show" c_elec="0" c_spicepin="1" c_origin="230 ,400" id="0" c_rotation="180">    <path d="M 230 400 h 5" fill="none" stroke="#800" stroke-width="1"/><circle cx="232" cy="400" r="3" fill="none" stroke="#800" stroke-width="1" display="none"/><path d="M 235 403 L 238 400 L 235 397" fill="none" stroke="#800" stroke-width="1" display="none"/></g></g>  <g xmlns="http://www.w3.org/2000/svg">           <text x="312.5" y="392" font-family="Arial" font-size="7pt" fill="#000080" text-anchor="start">470 </text>           <text x="313.5" y="383" font-family="Arial" font-size="7pt" fill="#000080" text-anchor="start">R2 </text>      <polyline points="335 400 332 405" stroke="#A00000" stroke-width="1" fill="none" stroke-linecap="round"/>      <polyline points="327 395 322 405" stroke="#A00000" stroke-width="1" fill="none" stroke-linecap="round"/>      <polyline points="332 405 327 395" stroke="#A00000" stroke-width="1" fill="none" stroke-linecap="round"/>    <g c_partid="part_pin" c_etype="pinpart" c_show="show" c_elec="0" c_spicepin="2" c_origin="340 ,400" id="0" c_rotation="0">    <path d="M 340 400 h -5" fill="none" stroke="#800" stroke-width="1"/><circle cx="338" cy="400" r="3" fill="none" stroke="#800" stroke-width="1" display="none"/><path d="M 335 397 L 332 400 L 335 403" fill="none" stroke="#800" stroke-width="1" display="none"/></g>      <polyline points="313 405 308 395" stroke="#A00000" stroke-width="1" fill="none" stroke-linecap="round"/>      <polyline points="322 405 318 395" stroke="#A00000" stroke-width="1" fill="none" stroke-linecap="round"/>      <polyline points="318 395 313 405" stroke="#A00000" stroke-width="1" fill="none" stroke-linecap="round"/>      <polyline points="308 395 305 400" stroke="#A00000" stroke-width="1" fill="none" stroke-linecap="round"/>    <g c_partid="part_pin" c_etype="pinpart" c_show="show" c_elec="0" c_spicepin="1" c_origin="300 ,400" id="0" c_rotation="180">    <path d="M 300 400 h 5" fill="none" stroke="#800" stroke-width="1"/><circle cx="302" cy="400" r="3" fill="none" stroke="#800" stroke-width="1" display="none"/><path d="M 305 403 L 308 400 L 305 397" fill="none" stroke="#800" stroke-width="1" display="none"/></g></g>    <polyline points="270 450 300 450" stroke="#008800" stroke-width="1" fill="none" stroke-linecap="round"/>  <g xmlns="http://www.w3.org/2000/svg">           <text x="312.5" y="492" font-family="Arial" font-size="7pt" fill="#000080" text-anchor="start">3.3k </text>           <text x="313.5" y="483" font-family="Arial" font-size="7pt" fill="#000080" text-anchor="start">R4 </text>      <polyline points="335 500 332 505" stroke="#A00000" stroke-width="1" fill="none" stroke-linecap="round"/>      <polyline points="327 495 322 505" stroke="#A00000" stroke-width="1" fill="none" stroke-linecap="round"/>      <polyline points="332 505 327 495" stroke="#A00000" stroke-width="1" fill="none" stroke-linecap="round"/>    <g c_partid="part_pin" c_etype="pinpart" c_show="show" c_elec="0" c_spicepin="2" c_origin="340 ,500" id="0" c_rotation="0">    <path d="M 340 500 h -5" fill="none" stroke="#800" stroke-width="1"/><circle cx="338" cy="500" r="3" fill="none" stroke="#800" stroke-width="1" display="none"/><path d="M 335 497 L 332 500 L 335 503" fill="none" stroke="#800" stroke-width="1" display="none"/></g>      <polyline points="313 505 308 495" stroke="#A00000" stroke-width="1" fill="none" stroke-linecap="round"/>      <polyline points="322 505 318 495" stroke="#A00000" stroke-width="1" fill="none" stroke-linecap="round"/>      <polyline points="318 495 313 505" stroke="#A00000" stroke-width="1" fill="none" stroke-linecap="round"/>      <polyline points="308 495 305 500" stroke="#A00000" stroke-width="1" fill="none" stroke-linecap="round"/>    <g c_partid="part_pin" c_etype="pinpart" c_show="show" c_elec="0" c_spicepin="1" c_origin="300 ,500" id="0" c_rotation="180">    <path d="M 300 500 h 5" fill="none" stroke="#800" stroke-width="1"/><circle cx="302" cy="500" r="3" fill="none" stroke="#800" stroke-width="1" display="none"/><path d="M 305 503 L 308 500 L 305 497" fill="none" stroke="#800" stroke-width="1" display="none"/></g></g>  <g xmlns="http://www.w3.org/2000/svg">           <text x="312.5" y="530" font-family="Arial" font-size="7pt" fill="#000080" text-anchor="start">LED </text>           <text x="313.5" y="521" font-family="Arial" font-size="7pt" fill="#000080" text-anchor="start">L2 </text>      <path d="M 335 537 L 331 539 L 333 541 Z" stroke="#880000" stroke-width="1" fill="#880000"/>      <path d="M 331 533 L 327 535 L 329 537 Z" stroke="#880000" stroke-width="1" fill="#880000"/>    <g c_partid="part_pin" c_etype="pinpart" c_show="show" c_elec="0" c_spicepin="2" c_origin="340 ,550" id="0" c_rotation="0">    <path d="M 340 550 h -15" fill="none" stroke="#800" stroke-width="1"/><circle cx="328" cy="550" r="3" fill="none" stroke="#800" stroke-width="1" display="none"/><path d="M 325 547 L 322 550 L 325 553" fill="none" stroke="#800" stroke-width="1" display="none"/></g>      <polyline points="328 544 335 537" stroke="#880000" stroke-width="1" fill="none" stroke-linecap="round"/>      <polyline points="324 540 331 533" stroke="#880000" stroke-width="1" fill="none" stroke-linecap="round"/>    <g c_partid="part_pin" c_etype="pinpart" c_show="show" c_elec="0" c_spicepin="1" c_origin="300 ,550" id="0" c_rotation="180">    <path d="M 300 550 h 15" fill="none" stroke="#800" stroke-width="1"/><circle cx="312" cy="550" r="3" fill="none" stroke="#800" stroke-width="1" display="none"/><path d="M 315 553 L 318 550 L 315 547" fill="none" stroke="#800" stroke-width="1" display="none"/></g>      <polyline points="325 542 325 558" stroke="#880000" stroke-width="1" fill="none" stroke-linecap="round"/>      <path d="M 315 556 L 325 550 L 315 543 Z" stroke="#880000" stroke-width="1" fill="#880000"/></g>  <g xmlns="http://www.w3.org/2000/svg">           <text x="242.5" y="542" font-family="Arial" font-size="7pt" fill="#000080" text-anchor="start">470 </text>           <text x="243.5" y="533" font-family="Arial" font-size="7pt" fill="#000080" text-anchor="start">R5 </text>      <polyline points="265 550 262 555" stroke="#A00000" stroke-width="1" fill="none" stroke-linecap="round"/>      <polyline points="257 545 252 555" stroke="#A00000" stroke-width="1" fill="none" stroke-linecap="round"/>      <polyline points="262 555 257 545" stroke="#A00000" stroke-width="1" fill="none" stroke-linecap="round"/>    <g c_partid="part_pin" c_etype="pinpart" c_show="show" c_elec="0" c_spicepin="2" c_origin="270 ,550" id="0" c_rotation="0">    <path d="M 270 550 h -5" fill="none" stroke="#800" stroke-width="1"/><circle cx="268" cy="550" r="3" fill="none" stroke="#800" stroke-width="1" display="none"/><path d="M 265 547 L 262 550 L 265 553" fill="none" stroke="#800" stroke-width="1" display="none"/></g>      <polyline points="243 555 238 545" stroke="#A00000" stroke-width="1" fill="none" stroke-linecap="round"/>      <polyline points="252 555 248 545" stroke="#A00000" stroke-width="1" fill="none" stroke-linecap="round"/>      <polyline points="248 545 243 555" stroke="#A00000" stroke-width="1" fill="none" stroke-linecap="round"/>      <polyline points="238 545 235 550" stroke="#A00000" stroke-width="1" fill="none" stroke-linecap="round"/>    <g c_partid="part_pin" c_etype="pinpart" c_show="show" c_elec="0" c_spicepin="1" c_origin="230 ,550" id="0" c_rotation="180">    <path d="M 230 550 h 5" fill="none" stroke="#800" stroke-width="1"/><circle cx="232" cy="550" r="3" fill="none" stroke="#800" stroke-width="1" display="none"/><path d="M 235 553 L 238 550 L 235 547" fill="none" stroke="#800" stroke-width="1" display="none"/></g></g>    <polyline points="270 550 300 550" stroke="#008800" stroke-width="1" fill="none" stroke-linecap="round"/>    <polyline points="270 400 300 400" stroke="#008800" stroke-width="1" fill="none" stroke-linecap="round"/>     <text x="219" y="587" font-family="Times New Roman,msyh" font-size="9pt" fill="#000080" text-anchor="start" display="none">GND </text>      <polyline points="230 610 230 600" stroke="#000000" stroke-width="1" fill="none" stroke-linecap="round"/>      <polyline points="220 610 239 610" stroke="#000000" stroke-width="1" fill="none" stroke-linecap="round"/>      <polyline points="224 612 237 612" stroke="#000000" stroke-width="1" fill="none" stroke-linecap="round"/>      <polyline points="226 614 233 614" stroke="#000000" stroke-width="1" fill="none" stroke-linecap="round"/>      <polyline points="229 616 231 616" stroke="#000000" stroke-width="1" fill="none" stroke-linecap="round"/>    <polyline points="230 400 230 600" stroke="#008800" stroke-width="1" fill="none" stroke-linecap="round"/>    <circle cx="230" cy="450" r="2" fill="#CC0000" stroke-width="1"/>    <circle cx="230" cy="550" r="2" fill="#CC0000" stroke-width="1"/>  <g xmlns="http://www.w3.org/2000/svg">           <text x="284.5" y="353" font-family="Arial" font-size="7pt" fill="#000080" display="none" text-anchor="start">SIP1 </text>           <text x="285.5" y="344" font-family="Arial" font-size="7pt" fill="#000080" text-anchor="start">A0 </text>      <rect xmlns="http://www.w3.org/2000/svg" x="290" y="356" rx="1" ry="1" width="15" height="7" stroke="#800000" stroke-width="1" fill="none"/>    <g c_partid="part_pin" c_etype="pinpart" c_show="show" c_elec="0" c_spicepin="1" c_origin="280 ,360" id="0" c_rotation="180">    <path d="M 280 360 h 10" fill="none" stroke="#800000" stroke-width="1"/><circle cx="287" cy="360" r="3" fill="none" stroke="#800000" stroke-width="1" display="none"/><path d="M 290 363 L 293 360 L 290 357" fill="none" stroke="#800000" stroke-width="1" display="none"/></g></g>  <g xmlns="http://www.w3.org/2000/svg">           <text x="374.5" y="393" font-family="Arial" font-size="7pt" fill="#000080" display="none" text-anchor="start">SIP1 </text>           <text x="375.5" y="384" font-family="Arial" font-size="7pt" fill="#000080" text-anchor="start">D2 </text>      <rect xmlns="http://www.w3.org/2000/svg" x="380" y="396" rx="1" ry="1" width="15" height="7" stroke="#800000" stroke-width="1" fill="none"/>    <g c_partid="part_pin" c_etype="pinpart" c_show="show" c_elec="0" c_spicepin="1" c_origin="370 ,400" id="0" c_rotation="180">    <path d="M 370 400 h 10" fill="none" stroke="#800000" stroke-width="1"/><circle cx="377" cy="400" r="3" fill="none" stroke="#800000" stroke-width="1" display="none"/><path d="M 380 403 L 383 400 L 380 397" fill="none" stroke="#800000" stroke-width="1" display="none"/></g></g>  <g xmlns="http://www.w3.org/2000/svg">           <text x="374.5" y="443" font-family="Arial" font-size="7pt" fill="#000080" display="none" text-anchor="start">SIP1 </text>           <text x="375.5" y="434" font-family="Arial" font-size="7pt" fill="#000080" text-anchor="start">D4 </text>      <rect xmlns="http://www.w3.org/2000/svg" x="380" y="446" rx="1" ry="1" width="15" height="7" stroke="#800000" stroke-width="1" fill="none"/>    <g c_partid="part_pin" c_etype="pinpart" c_show="show" c_elec="0" c_spicepin="1" c_origin="370 ,450" id="0" c_rotation="180">    <path d="M 370 450 h 10" fill="none" stroke="#800000" stroke-width="1"/><circle cx="377" cy="450" r="3" fill="none" stroke="#800000" stroke-width="1" display="none"/><path d="M 380 453 L 383 450 L 380 447" fill="none" stroke="#800000" stroke-width="1" display="none"/></g></g>  <g xmlns="http://www.w3.org/2000/svg">           <text x="374.5" y="493" font-family="Arial" font-size="7pt" fill="#000080" display="none" text-anchor="start">SIP1 </text>           <text x="375.5" y="484" font-family="Arial" font-size="7pt" fill="#000080" text-anchor="start">D3 </text>      <rect xmlns="http://www.w3.org/2000/svg" x="380" y="496" rx="1" ry="1" width="15" height="7" stroke="#800000" stroke-width="1" fill="none"/>    <g c_partid="part_pin" c_etype="pinpart" c_show="show" c_elec="0" c_spicepin="1" c_origin="370 ,500" id="0" c_rotation="180">    <path d="M 370 500 h 10" fill="none" stroke="#800000" stroke-width="1"/><circle cx="377" cy="500" r="3" fill="none" stroke="#800000" stroke-width="1" display="none"/><path d="M 380 503 L 383 500 L 380 497" fill="none" stroke="#800000" stroke-width="1" display="none"/></g></g>  <g xmlns="http://www.w3.org/2000/svg">           <text x="374.5" y="543" font-family="Arial" font-size="7pt" fill="#000080" display="none" text-anchor="start">SIP1 </text>           <text x="375.5" y="534" font-family="Arial" font-size="7pt" fill="#000080" text-anchor="start">D5 </text>      <rect xmlns="http://www.w3.org/2000/svg" x="380" y="546" rx="1" ry="1" width="15" height="7" stroke="#800000" stroke-width="1" fill="none"/>    <g c_partid="part_pin" c_etype="pinpart" c_show="show" c_elec="0" c_spicepin="1" c_origin="370 ,550" id="0" c_rotation="180">    <path d="M 370 550 h 10" fill="none" stroke="#800000" stroke-width="1"/><circle cx="377" cy="550" r="3" fill="none" stroke="#800000" stroke-width="1" display="none"/><path d="M 380 553 L 383 550 L 380 547" fill="none" stroke="#800000" stroke-width="1" display="none"/></g></g>    <polyline points="340 400 370 400" stroke="#008800" stroke-width="1" fill="none" stroke-linecap="round"/>    <polyline points="340 450 370 450" stroke="#008800" stroke-width="1" fill="none" stroke-linecap="round"/>    <polyline points="340 500 370 500" stroke="#008800" stroke-width="1" fill="none" stroke-linecap="round"/>    <polyline points="370 550 340 550" stroke="#008800" stroke-width="1" fill="none" stroke-linecap="round"/>    <polyline points="280 400 280 360 200 360 200 500 300 500" stroke="#008800" stroke-width="1" fill="none" stroke-linecap="round"/>    <circle cx="280" cy="400" r="2" fill="#CC0000" stroke-width="1"/>    <circle cx="280" cy="360" r="2" fill="#CC0000" stroke-width="1"/>      <rect xmlns="http://www.w3.org/2000/svg" x="160" y="330" width="270" height="300" stroke="#000000" stroke-width="1" fill="none"/>           <text x="310" y="600" font-family="Arial" font-size="10pt" fill="#000080" text-anchor="start">OhmTest </text></g></svg>